<mxfile host="app.diagrams.net" modified="2021-04-21T01:00:57.232Z" agent="5.0 (Windows NT 10.0; Win64; x64) AppleWebKit/537.36 (KHTML, like Gecko) Chrome/90.0.4430.72 Safari/537.36" etag="LfV9QMqrN8NckQzdmvck" version="14.6.1" type="github">
  <diagram id="PrM_W4GA_D4Nd456_CjV" name="Page-1">
    <mxGraphModel dx="1021" dy="534" grid="1" gridSize="10" guides="1" tooltips="1" connect="1" arrows="1" fold="1" page="1" pageScale="1" pageWidth="1169" pageHeight="827" math="0" shadow="0">
      <root>
        <mxCell id="0" />
        <mxCell id="1" parent="0" />
        <mxCell id="ZKRe0SPJZLEw8bP_aKlE-2" value="" style="rounded=1;whiteSpace=wrap;html=1;opacity=40;fillColor=#f8cecc;strokeColor=#b85450;" vertex="1" parent="1">
          <mxGeometry x="660" y="210" width="210" height="220" as="geometry" />
        </mxCell>
        <mxCell id="ZKRe0SPJZLEw8bP_aKlE-1" value="" style="rounded=1;whiteSpace=wrap;html=1;fillColor=#dae8fc;strokeColor=#6c8ebf;opacity=40;" vertex="1" parent="1">
          <mxGeometry x="325" y="70" width="320" height="360" as="geometry" />
        </mxCell>
        <mxCell id="f-iRtKM67KEowYbmloAB-2" value="H1" style="fontColor=#0066CC;verticalAlign=top;verticalLabelPosition=bottom;labelPosition=center;align=center;html=1;outlineConnect=0;fillColor=#CCCCCC;strokeColor=#6881B3;gradientColor=none;gradientDirection=north;strokeWidth=2;shape=mxgraph.networks.pc;" parent="1" vertex="1">
          <mxGeometry x="100" y="590" width="100" height="70" as="geometry" />
        </mxCell>
        <mxCell id="f-iRtKM67KEowYbmloAB-3" value="H2" style="fontColor=#0066CC;verticalAlign=top;verticalLabelPosition=bottom;labelPosition=center;align=center;html=1;outlineConnect=0;fillColor=#CCCCCC;strokeColor=#6881B3;gradientColor=none;gradientDirection=north;strokeWidth=2;shape=mxgraph.networks.pc;" parent="1" vertex="1">
          <mxGeometry x="260" y="590" width="100" height="70" as="geometry" />
        </mxCell>
        <mxCell id="f-iRtKM67KEowYbmloAB-4" value="H3" style="fontColor=#0066CC;verticalAlign=top;verticalLabelPosition=bottom;labelPosition=center;align=center;html=1;outlineConnect=0;fillColor=#CCCCCC;strokeColor=#6881B3;gradientColor=none;gradientDirection=north;strokeWidth=2;shape=mxgraph.networks.pc;" parent="1" vertex="1">
          <mxGeometry x="410" y="590" width="100" height="70" as="geometry" />
        </mxCell>
        <mxCell id="f-iRtKM67KEowYbmloAB-11" style="rounded=0;orthogonalLoop=1;jettySize=auto;html=1;endArrow=none;endFill=0;" parent="1" source="f-iRtKM67KEowYbmloAB-5" target="f-iRtKM67KEowYbmloAB-2" edge="1">
          <mxGeometry relative="1" as="geometry" />
        </mxCell>
        <mxCell id="f-iRtKM67KEowYbmloAB-12" style="edgeStyle=none;rounded=0;orthogonalLoop=1;jettySize=auto;html=1;exitX=0.5;exitY=1;exitDx=0;exitDy=0;exitPerimeter=0;endArrow=none;endFill=0;strokeColor=#000000;" parent="1" source="f-iRtKM67KEowYbmloAB-5" target="f-iRtKM67KEowYbmloAB-3" edge="1">
          <mxGeometry relative="1" as="geometry" />
        </mxCell>
        <mxCell id="f-iRtKM67KEowYbmloAB-13" style="edgeStyle=none;rounded=0;orthogonalLoop=1;jettySize=auto;html=1;exitX=0.985;exitY=0.985;exitDx=0;exitDy=0;exitPerimeter=0;entryX=0;entryY=0;entryDx=0;entryDy=0;entryPerimeter=0;endArrow=none;endFill=0;strokeColor=#000000;" parent="1" source="f-iRtKM67KEowYbmloAB-5" target="f-iRtKM67KEowYbmloAB-4" edge="1">
          <mxGeometry relative="1" as="geometry" />
        </mxCell>
        <mxCell id="f-iRtKM67KEowYbmloAB-16" style="edgeStyle=none;rounded=0;orthogonalLoop=1;jettySize=auto;html=1;exitX=0.985;exitY=0.015;exitDx=0;exitDy=0;exitPerimeter=0;entryX=0.186;entryY=1.033;entryDx=0;entryDy=0;entryPerimeter=0;endArrow=none;endFill=0;strokeColor=#000000;" parent="1" source="f-iRtKM67KEowYbmloAB-5" target="f-iRtKM67KEowYbmloAB-6" edge="1">
          <mxGeometry relative="1" as="geometry" />
        </mxCell>
        <mxCell id="f-iRtKM67KEowYbmloAB-5" value="sw" style="points=[[0.015,0.015,0],[0.985,0.015,0],[0.985,0.985,0],[0.015,0.985,0],[0.25,0,0],[0.5,0,0],[0.75,0,0],[1,0.25,0],[1,0.5,0],[1,0.75,0],[0.75,1,0],[0.5,1,0],[0.25,1,0],[0,0.75,0],[0,0.5,0],[0,0.25,0]];verticalLabelPosition=bottom;html=1;verticalAlign=top;aspect=fixed;align=center;pointerEvents=1;shape=mxgraph.cisco19.rect;prIcon=l3_switch;fillColor=#FAFAFA;strokeColor=#005073;" parent="1" vertex="1">
          <mxGeometry x="280" y="460" width="60" height="60" as="geometry" />
        </mxCell>
        <mxCell id="f-iRtKM67KEowYbmloAB-22" style="edgeStyle=none;rounded=0;orthogonalLoop=1;jettySize=auto;html=1;exitX=1;exitY=0.5;exitDx=0;exitDy=0;exitPerimeter=0;entryX=0;entryY=0.5;entryDx=0;entryDy=0;entryPerimeter=0;endArrow=none;endFill=0;strokeColor=#000000;" parent="1" source="f-iRtKM67KEowYbmloAB-6" target="f-iRtKM67KEowYbmloAB-17" edge="1">
          <mxGeometry relative="1" as="geometry" />
        </mxCell>
        <mxCell id="f-iRtKM67KEowYbmloAB-23" style="edgeStyle=none;rounded=0;orthogonalLoop=1;jettySize=auto;html=1;exitX=0.75;exitY=0;exitDx=0;exitDy=0;exitPerimeter=0;entryX=0.257;entryY=0.933;entryDx=0;entryDy=0;entryPerimeter=0;endArrow=none;endFill=0;strokeColor=#000000;" parent="1" source="f-iRtKM67KEowYbmloAB-6" target="f-iRtKM67KEowYbmloAB-18" edge="1">
          <mxGeometry relative="1" as="geometry" />
        </mxCell>
        <mxCell id="f-iRtKM67KEowYbmloAB-6" value="" style="verticalLabelPosition=bottom;html=1;fillColor=#A153A0;strokeColor=#ffffff;verticalAlign=top;align=center;points=[[0,0.5,0],[0.125,0.25,0],[0.25,0,0],[0.5,0,0],[0.75,0,0],[0.875,0.25,0],[1,0.5,0],[0.875,0.75,0],[0.75,1,0],[0.5,1,0],[0.125,0.75,0]];pointerEvents=1;shape=mxgraph.cisco_safe.compositeIcon;bgIcon=mxgraph.cisco_safe.design.blank_device;resIcon=mxgraph.cisco_safe.design.router;" parent="1" vertex="1">
          <mxGeometry x="410" y="330" width="70" height="60" as="geometry" />
        </mxCell>
        <mxCell id="f-iRtKM67KEowYbmloAB-32" style="edgeStyle=none;rounded=0;orthogonalLoop=1;jettySize=auto;html=1;exitX=0.75;exitY=1;exitDx=0;exitDy=0;exitPerimeter=0;entryX=0;entryY=0.5;entryDx=0;entryDy=0;entryPerimeter=0;endArrow=none;endFill=0;strokeColor=#000000;" parent="1" source="f-iRtKM67KEowYbmloAB-17" target="f-iRtKM67KEowYbmloAB-24" edge="1">
          <mxGeometry relative="1" as="geometry" />
        </mxCell>
        <mxCell id="f-iRtKM67KEowYbmloAB-17" value="" style="verticalLabelPosition=bottom;html=1;fillColor=#A153A0;strokeColor=#ffffff;verticalAlign=top;align=center;points=[[0,0.5,0],[0.125,0.25,0],[0.25,0,0],[0.5,0,0],[0.75,0,0],[0.875,0.25,0],[1,0.5,0],[0.875,0.75,0],[0.75,1,0],[0.5,1,0],[0.125,0.75,0]];pointerEvents=1;shape=mxgraph.cisco_safe.compositeIcon;bgIcon=mxgraph.cisco_safe.design.blank_device;resIcon=mxgraph.cisco_safe.design.router;" parent="1" vertex="1">
          <mxGeometry x="610" y="330" width="70" height="60" as="geometry" />
        </mxCell>
        <mxCell id="f-iRtKM67KEowYbmloAB-21" style="edgeStyle=none;rounded=0;orthogonalLoop=1;jettySize=auto;html=1;exitX=0.75;exitY=1;exitDx=0;exitDy=0;exitPerimeter=0;entryX=0.25;entryY=0;entryDx=0;entryDy=0;entryPerimeter=0;endArrow=none;endFill=0;strokeColor=#000000;" parent="1" source="f-iRtKM67KEowYbmloAB-18" target="f-iRtKM67KEowYbmloAB-17" edge="1">
          <mxGeometry relative="1" as="geometry" />
        </mxCell>
        <mxCell id="f-iRtKM67KEowYbmloAB-18" value="" style="verticalLabelPosition=bottom;html=1;fillColor=#A153A0;strokeColor=#ffffff;verticalAlign=top;align=center;points=[[0,0.5,0],[0.125,0.25,0],[0.25,0,0],[0.5,0,0],[0.75,0,0],[0.875,0.25,0],[1,0.5,0],[0.875,0.75,0],[0.75,1,0],[0.5,1,0],[0.125,0.75,0]];pointerEvents=1;shape=mxgraph.cisco_safe.compositeIcon;bgIcon=mxgraph.cisco_safe.design.blank_device;resIcon=mxgraph.cisco_safe.design.router;" parent="1" vertex="1">
          <mxGeometry x="510" y="180" width="70" height="60" as="geometry" />
        </mxCell>
        <mxCell id="f-iRtKM67KEowYbmloAB-24" value="AccessPoint" style="verticalLabelPosition=bottom;html=1;fillColor=#A153A0;strokeColor=#ffffff;verticalAlign=top;align=center;points=[[0,0.5,0],[0.125,0.25,0],[0.25,0,0],[0.5,0,0],[0.75,0,0],[0.875,0.25,0],[1,0.5,0],[0.875,0.75,0],[0.75,1,0],[0.5,1,0],[0.125,0.75,0]];pointerEvents=1;shape=mxgraph.cisco_safe.compositeIcon;bgIcon=mxgraph.cisco_safe.design.blank_device;resIcon=mxgraph.cisco_safe.design.access_point;" parent="1" vertex="1">
          <mxGeometry x="760" y="500" width="70" height="60" as="geometry" />
        </mxCell>
        <mxCell id="f-iRtKM67KEowYbmloAB-26" value="H6" style="pointerEvents=1;shadow=1;dashed=0;html=1;strokeColor=#82b366;fillColor=#d5e8d4;labelPosition=center;verticalLabelPosition=bottom;verticalAlign=top;outlineConnect=0;align=center;shape=mxgraph.office.devices.laptop;" parent="1" vertex="1">
          <mxGeometry x="940" y="640" width="90" height="50" as="geometry" />
        </mxCell>
        <mxCell id="f-iRtKM67KEowYbmloAB-27" value="H5" style="pointerEvents=1;shadow=1;dashed=0;html=1;strokeColor=#82b366;fillColor=#d5e8d4;labelPosition=center;verticalLabelPosition=bottom;verticalAlign=top;outlineConnect=0;align=center;shape=mxgraph.office.devices.laptop;" parent="1" vertex="1">
          <mxGeometry x="940" y="505" width="90" height="50" as="geometry" />
        </mxCell>
        <mxCell id="f-iRtKM67KEowYbmloAB-28" value="H4" style="pointerEvents=1;shadow=1;dashed=0;html=1;strokeColor=#82b366;fillColor=#d5e8d4;labelPosition=center;verticalLabelPosition=bottom;verticalAlign=top;outlineConnect=0;align=center;shape=mxgraph.office.devices.laptop;" parent="1" vertex="1">
          <mxGeometry x="940" y="370" width="90" height="50" as="geometry" />
        </mxCell>
        <mxCell id="f-iRtKM67KEowYbmloAB-37" value="R3" style="text;html=1;align=center;verticalAlign=middle;resizable=0;points=[];autosize=1;fontStyle=1" parent="1" vertex="1">
          <mxGeometry x="680" y="350" width="30" height="20" as="geometry" />
        </mxCell>
        <mxCell id="f-iRtKM67KEowYbmloAB-38" value="R1" style="text;html=1;align=center;verticalAlign=middle;resizable=0;points=[];autosize=1;fontStyle=1" parent="1" vertex="1">
          <mxGeometry x="530" y="160" width="30" height="20" as="geometry" />
        </mxCell>
        <mxCell id="f-iRtKM67KEowYbmloAB-39" value="R2" style="text;html=1;align=center;verticalAlign=middle;resizable=0;points=[];autosize=1;fontStyle=1" parent="1" vertex="1">
          <mxGeometry x="380" y="340" width="30" height="20" as="geometry" />
        </mxCell>
        <mxCell id="f-iRtKM67KEowYbmloAB-40" value="2001:BBBB::13/64" style="text;html=1;align=center;verticalAlign=middle;resizable=0;points=[];autosize=1;fontSize=11;fontColor=#FF0000;" parent="1" vertex="1">
          <mxGeometry x="670" y="380" width="110" height="20" as="geometry" />
        </mxCell>
        <mxCell id="f-iRtKM67KEowYbmloAB-41" value="2001:0:0:3::13/64" style="text;html=1;align=center;verticalAlign=middle;resizable=0;points=[];autosize=1;fontSize=10;fontStyle=0;fontColor=#FF0000;" parent="1" vertex="1">
          <mxGeometry x="531" y="360" width="90" height="20" as="geometry" />
        </mxCell>
        <mxCell id="f-iRtKM67KEowYbmloAB-43" value="2001:0:0:2::13/64" style="text;html=1;align=center;verticalAlign=middle;resizable=0;points=[];autosize=1;fontSize=11;fontColor=#FF0000;" parent="1" vertex="1">
          <mxGeometry x="621" y="310" width="100" height="20" as="geometry" />
        </mxCell>
        <mxCell id="f-iRtKM67KEowYbmloAB-44" value="2001:AAAA::12/64" style="text;html=1;align=center;verticalAlign=middle;resizable=0;points=[];autosize=1;fontSize=11;fontColor=#FF0000;" parent="1" vertex="1">
          <mxGeometry x="310" y="370" width="110" height="20" as="geometry" />
        </mxCell>
        <mxCell id="f-iRtKM67KEowYbmloAB-45" value="&lt;span id=&quot;docs-internal-guid-70469a81-7fff-3385-b875-99ab453dd5ec&quot; style=&quot;font-size: 10px;&quot;&gt;&lt;span style=&quot;font-family: &amp;quot;proxima nova&amp;quot;, sans-serif; background-color: transparent; vertical-align: baseline; font-size: 10px;&quot;&gt;&lt;font style=&quot;font-size: 10px;&quot;&gt;2001:0:0:3::12/64&lt;/font&gt;&lt;/span&gt;&lt;/span&gt;" style="text;html=1;align=center;verticalAlign=middle;resizable=0;points=[];autosize=1;fontSize=10;fontColor=#FF0000;" parent="1" vertex="1">
          <mxGeometry x="465" y="380" width="90" height="20" as="geometry" />
        </mxCell>
        <mxCell id="f-iRtKM67KEowYbmloAB-46" value="2001:0:0:1::12/64" style="text;html=1;align=center;verticalAlign=middle;resizable=0;points=[];autosize=1;fontSize=10;fontColor=#FF0000;" parent="1" vertex="1">
          <mxGeometry x="380" y="310" width="90" height="20" as="geometry" />
        </mxCell>
        <mxCell id="f-iRtKM67KEowYbmloAB-47" value="2001:0:0:2::11/64" style="text;html=1;align=center;verticalAlign=middle;resizable=0;points=[];autosize=1;fontSize=10;fontColor=#FF0000;" parent="1" vertex="1">
          <mxGeometry x="565" y="230" width="90" height="20" as="geometry" />
        </mxCell>
        <mxCell id="f-iRtKM67KEowYbmloAB-48" value="2001:0:0:1::11/64" style="text;html=1;align=center;verticalAlign=middle;resizable=0;points=[];autosize=1;fontSize=10;fontColor=#FF0000;" parent="1" vertex="1">
          <mxGeometry x="430" y="230" width="90" height="20" as="geometry" />
        </mxCell>
        <mxCell id="f-iRtKM67KEowYbmloAB-49" value="2001:db8::1/64" style="text;html=1;align=center;verticalAlign=middle;resizable=0;points=[];autosize=1;fontSize=10;fontColor=#FF0000;" parent="1" vertex="1">
          <mxGeometry x="505" y="260" width="80" height="20" as="geometry" />
        </mxCell>
        <mxCell id="f-iRtKM67KEowYbmloAB-50" value="loopback 1" style="text;html=1;align=center;verticalAlign=middle;resizable=0;points=[];autosize=1;fontSize=10;fontStyle=4" parent="1" vertex="1">
          <mxGeometry x="515" y="250" width="60" height="20" as="geometry" />
        </mxCell>
        <mxCell id="f-iRtKM67KEowYbmloAB-51" value="gigabite 0/0" style="text;html=1;align=center;verticalAlign=middle;resizable=0;points=[];autosize=1;fontSize=10;fontStyle=4" parent="1" vertex="1">
          <mxGeometry x="440" y="218" width="70" height="20" as="geometry" />
        </mxCell>
        <mxCell id="f-iRtKM67KEowYbmloAB-52" value="gigabite 0/1" style="text;html=1;align=center;verticalAlign=middle;resizable=0;points=[];autosize=1;fontSize=10;fontStyle=4" parent="1" vertex="1">
          <mxGeometry x="575" y="218" width="70" height="20" as="geometry" />
        </mxCell>
        <mxCell id="f-iRtKM67KEowYbmloAB-53" value="gigabite 0/0" style="text;html=1;align=center;verticalAlign=middle;resizable=0;points=[];autosize=1;fontSize=10;fontStyle=4" parent="1" vertex="1">
          <mxGeometry x="390" y="296" width="70" height="20" as="geometry" />
        </mxCell>
        <mxCell id="f-iRtKM67KEowYbmloAB-54" value="gigabite 0/0" style="text;html=1;align=center;verticalAlign=middle;resizable=0;points=[];autosize=1;fontSize=10;fontStyle=4" parent="1" vertex="1">
          <mxGeometry x="630" y="296" width="70" height="20" as="geometry" />
        </mxCell>
        <mxCell id="f-iRtKM67KEowYbmloAB-55" value="gigabite 0/1" style="text;html=1;align=center;verticalAlign=middle;resizable=0;points=[];autosize=1;fontSize=10;fontStyle=4" parent="1" vertex="1">
          <mxGeometry x="470" y="394" width="70" height="20" as="geometry" />
        </mxCell>
        <mxCell id="f-iRtKM67KEowYbmloAB-56" value="gigabite 0/1" style="text;html=1;align=center;verticalAlign=middle;resizable=0;points=[];autosize=1;fontSize=10;fontStyle=4" parent="1" vertex="1">
          <mxGeometry x="560" y="374" width="70" height="20" as="geometry" />
        </mxCell>
        <mxCell id="f-iRtKM67KEowYbmloAB-57" value="gigabite 0/2" style="text;html=1;align=center;verticalAlign=middle;resizable=0;points=[];autosize=1;fontSize=10;fontStyle=4" parent="1" vertex="1">
          <mxGeometry x="690" y="360" width="70" height="20" as="geometry" />
        </mxCell>
        <mxCell id="f-iRtKM67KEowYbmloAB-58" value="gigabite 0/2" style="text;html=1;align=center;verticalAlign=middle;resizable=0;points=[];autosize=1;fontSize=10;fontStyle=4" parent="1" vertex="1">
          <mxGeometry x="320" y="354" width="70" height="20" as="geometry" />
        </mxCell>
        <mxCell id="f-iRtKM67KEowYbmloAB-59" value="2001:AAAA::1" style="text;html=1;align=center;verticalAlign=middle;resizable=0;points=[];autosize=1;fontSize=10;fontColor=#FF0000;" parent="1" vertex="1">
          <mxGeometry x="110" y="680" width="80" height="20" as="geometry" />
        </mxCell>
        <mxCell id="f-iRtKM67KEowYbmloAB-60" value="2001:AAAA::2" style="text;html=1;align=center;verticalAlign=middle;resizable=0;points=[];autosize=1;fontSize=10;fontColor=#FF0000;" parent="1" vertex="1">
          <mxGeometry x="270" y="680" width="80" height="20" as="geometry" />
        </mxCell>
        <mxCell id="f-iRtKM67KEowYbmloAB-61" value="2001:AAAA::3" style="text;html=1;align=center;verticalAlign=middle;resizable=0;points=[];autosize=1;fontSize=10;fontColor=#FF0000;" parent="1" vertex="1">
          <mxGeometry x="425" y="680" width="80" height="20" as="geometry" />
        </mxCell>
        <mxCell id="f-iRtKM67KEowYbmloAB-62" value="2001:BBBB:4" style="text;html=1;align=center;verticalAlign=middle;resizable=0;points=[];autosize=1;fontSize=10;fontColor=#FF0000;" parent="1" vertex="1">
          <mxGeometry x="945" y="440" width="80" height="20" as="geometry" />
        </mxCell>
        <mxCell id="f-iRtKM67KEowYbmloAB-63" value="2001:BBBB::5" style="text;html=1;align=center;verticalAlign=middle;resizable=0;points=[];autosize=1;fontSize=10;fontColor=#FF0000;" parent="1" vertex="1">
          <mxGeometry x="945" y="580" width="80" height="20" as="geometry" />
        </mxCell>
        <mxCell id="f-iRtKM67KEowYbmloAB-64" value="2001:BBBB::6" style="text;html=1;align=center;verticalAlign=middle;resizable=0;points=[];autosize=1;fontSize=10;fontColor=#FF0000;" parent="1" vertex="1">
          <mxGeometry x="945" y="710" width="80" height="20" as="geometry" />
        </mxCell>
        <mxCell id="f-iRtKM67KEowYbmloAB-65" value="" style="aspect=fixed;pointerEvents=1;shadow=0;dashed=0;html=1;strokeColor=none;labelPosition=center;verticalLabelPosition=bottom;verticalAlign=top;align=center;fillColor=#00188D;shape=mxgraph.mscae.enterprise.wireless_connection;fontSize=10;fontColor=#FF0000;rotation=0;" parent="1" vertex="1">
          <mxGeometry x="850" y="520" width="42" height="50" as="geometry" />
        </mxCell>
        <mxCell id="f-iRtKM67KEowYbmloAB-66" value="" style="aspect=fixed;pointerEvents=1;shadow=0;dashed=0;html=1;strokeColor=none;labelPosition=center;verticalLabelPosition=bottom;verticalAlign=top;align=center;fillColor=#00188D;shape=mxgraph.mscae.enterprise.wireless_connection;fontSize=10;fontColor=#FF0000;rotation=0;" parent="1" vertex="1">
          <mxGeometry x="850" y="414" width="42" height="50" as="geometry" />
        </mxCell>
        <mxCell id="f-iRtKM67KEowYbmloAB-67" value="" style="aspect=fixed;pointerEvents=1;shadow=0;dashed=0;html=1;strokeColor=none;labelPosition=center;verticalLabelPosition=bottom;verticalAlign=top;align=center;fillColor=#00188D;shape=mxgraph.mscae.enterprise.wireless_connection;fontSize=10;fontColor=#FF0000;rotation=0;" parent="1" vertex="1">
          <mxGeometry x="850" y="620" width="42" height="50" as="geometry" />
        </mxCell>
        <mxCell id="ZKRe0SPJZLEw8bP_aKlE-3" value="AREA 0 (BACKBONE)" style="text;html=1;align=center;verticalAlign=middle;resizable=0;points=[];autosize=1;strokeColor=none;fontStyle=1;fontSize=16;" vertex="1" parent="1">
          <mxGeometry x="395" y="90" width="180" height="20" as="geometry" />
        </mxCell>
        <mxCell id="ZKRe0SPJZLEw8bP_aKlE-4" value="AREA 1" style="text;html=1;align=center;verticalAlign=middle;resizable=0;points=[];autosize=1;strokeColor=none;fontStyle=1;fontSize=16;" vertex="1" parent="1">
          <mxGeometry x="721" y="230" width="70" height="20" as="geometry" />
        </mxCell>
      </root>
    </mxGraphModel>
  </diagram>
</mxfile>
